<svg xmlns="http://www.w3.org/2000/svg" xmlns:xlink="http://www.w3.org/1999/xlink" id="screenshot-dd20a063-b517-80d9-8002-55556598bb7d" width="16" height="16" fill="none" version="1.1" viewBox="0 0 16 16" style="-webkit-print-color-adjust:exact"><g id="shape-dd20a063-b517-80d9-8002-55556598bb7d"><defs><clipPath id="frame-clip-dd20a063-b517-80d9-8002-55556598bb7d-rumext-id-1" class="frame-clip-def frame-clip"><rect width="16" height="16" x="0" y="0" rx="0" ry="0" transform="matrix(1.000000, 0.000000, 0.000000, 1.000000, 0.000000, 0.000000)"/></clipPath></defs><g clip-path="url(#frame-clip-dd20a063-b517-80d9-8002-55556598bb7d-rumext-id-1)"><clipPath id="frame-clip-dd20a063-b517-80d9-8002-55556598bb7d-rumext-id-1" class="frame-clip-def frame-clip"><rect width="16" height="16" x="0" y="0" rx="0" ry="0" transform="matrix(1.000000, 0.000000, 0.000000, 1.000000, 0.000000, 0.000000)"/></clipPath><g id="fills-dd20a063-b517-80d9-8002-55556598bb7d" class="fills"><rect width="16" height="16" x="0" y="0" class="frame-background" rx="0" ry="0" transform="matrix(1.000000, 0.000000, 0.000000, 1.000000, 0.000000, 0.000000)"/></g><g class="frame-children"><g id="shape-dd20a063-b517-80d9-8002-555549440d01" rx="0" ry="0"><g id="shape-dd20a063-b517-80d9-8002-555549440d02"><g id="fills-dd20a063-b517-80d9-8002-555549440d02" class="fills"><path d="M7.549,13.909L8.078,10.224L9.132,9.405L11.492,9.520L12.839,8.702L13.346,7.337L3.044,5.307L2.771,6.673L3.746,7.922L6.244,8.820L6.283,9.834L4.644,12.917L4.630,14.274L5.502,14.985L6.751,15.024" rx="0" ry="0" style="fill:#fff;fill-opacity:1"/></g></g><g id="shape-dd20a063-b517-80d9-8002-555549440d03"><g id="fills-dd20a063-b517-80d9-8002-555549440d03" class="fills"><path d="M3.161,4.605L13.541,6.634L15.024,1.678L11.239,2.459L8.657,1.644L5.843,2.006L4.956,1.327L3.941,1.522L3.161,4.605ZL3.161,4.605Z" rx="0" ry="0" style="fill:#fff;fill-opacity:1"/></g></g></g></g></g></g></svg>