<svg xmlns="http://www.w3.org/2000/svg" xmlns:svg="http://www.w3.org/2000/svg" id="svg5" width="64" height="64" version="1.1" viewBox="0 0 16.933 16.933"><path id="rect32348" style="stroke-width:1.69703;stroke-dasharray:none;fill:#fff;fill-opacity:.75;stroke:none;stroke-linecap:round;stroke-linejoin:round;stroke-dashoffset:0;stroke-opacity:1;paint-order:normal" d="M -74.036184,-5.4987402 V 7.6914445 c 0,9.0790395 7.310309,16.3876505 16.389347,16.3876505 9.079038,0 16.387651,-7.308611 16.387651,-16.3876505 V -5.4987402 Z" transform="matrix(0.23338964,0,0,0.23338964,22.487038,9.9966238)"/><path id="path35376" style="stroke-width:1.69703;stroke-dasharray:none;fill:#fff;fill-opacity:.75;stroke:none;stroke-linecap:round;stroke-linejoin:round;stroke-dashoffset:0;stroke-opacity:1;paint-order:normal" d="m -56.294911,-25.026183 v 6.476353 c 0.897286,0.480984 1.504591,1.425799 1.504591,2.518959 v 2.858213 c 0,1.093174 -0.607286,2.037981 -1.504591,2.518959 v 2.4477148 h 15.035725 v -0.491918 c 0,-8.6228998 -6.595011,-15.6440248 -15.035725,-16.3282808 z" transform="matrix(0.23338964,0,0,0.23338964,22.487038,9.9966238)"/><path id="path35374" style="stroke-width:1.69703;stroke-dasharray:none;fill:#fff;fill-opacity:1;stroke:none;stroke-linecap:round;stroke-linejoin:round;stroke-dashoffset:0;stroke-opacity:1;paint-order:normal" d="m -58.998763,-25.026183 c -8.441517,0.683458 -15.037421,7.704808 -15.037421,16.3282808 v 0.491918 h 15.037421 v -2.4460188 c -0.898402,-0.480644 -1.506287,-1.426671 -1.506287,-2.520655 v -2.858213 c 0,-1.09397 0.607904,-2.040005 1.506287,-2.520655 z" transform="matrix(0.23338964,0,0,0.23338964,22.487038,9.9966238)"/><rect style="stroke-width:.910726;stroke-dasharray:none;fill:#fff;fill-opacity:1;stroke:none;stroke-linecap:round;stroke-linejoin:round;stroke-dashoffset:0;stroke-opacity:1;paint-order:normal" id="rect38528" width="5.078" height="13.134" x="-43.094" y="-74.754" ry="4.333" transform="matrix(0.18747781,-0.13900645,0.13900645,0.18747781,22.487038,9.9966238)"/><rect style="stroke-width:.910726;stroke-dasharray:none;fill:#fff;fill-opacity:1;stroke:none;stroke-linecap:round;stroke-linejoin:round;stroke-dashoffset:0;stroke-opacity:1;paint-order:normal" id="rect38530" width="5.078" height="13.134" x="-63.386" y="-47.36" ry="4.333" transform="matrix(0.23186377,-0.02664421,0.02664421,0.23186377,22.487038,9.9966238)"/><rect style="stroke-width:.910726;stroke-dasharray:none;fill:#fff;fill-opacity:1;stroke:none;stroke-linecap:round;stroke-linejoin:round;stroke-dashoffset:0;stroke-opacity:1;paint-order:normal" id="rect38532" width="5.078" height="13.134" x="-11.588" y="-88.046" ry="4.333" transform="matrix(0.09285733,-0.21412202,0.21412202,0.09285733,22.487038,9.9966238)"/></svg>