<svg xmlns="http://www.w3.org/2000/svg" xmlns:svg="http://www.w3.org/2000/svg" xmlns:xlink="http://www.w3.org/1999/xlink" id="svg13076" width="100" height="100" x="0" y="0" enable-background="new 0 0 100 100" version="1.1" viewBox="0 0 100 100" xml:space="preserve"><g id="layer1"><g id="path30124"><polygon fill="#FFF" points="40.03 68.723 24.778 68.723 24.778 60.723 28.403 60.723 28.403 39.191 24.778 39.191 24.778 31.191 40.03 31.191 40.03 39.191 36.403 39.191 36.403 60.723 40.03 60.723"/></g><g id="rect30126"><path fill="#FFF" d="M81.973,83.529H17.151c-6.41,0-11.625-5.216-11.625-11.626V28.097c0-6.411,5.215-11.626,11.625-11.626 h64.821c6.411,0,11.627,5.215,11.627,11.626v43.807C93.6,78.313,88.384,83.529,81.973,83.529z M17.151,24.471 c-1.999,0-3.625,1.626-3.625,3.626v43.807c0,1.999,1.626,3.626,3.625,3.626h64.821c2,0,3.627-1.627,3.627-3.626V28.097 c0-2-1.627-3.626-3.627-3.626H17.151z"/></g></g></svg>