<svg xmlns="http://www.w3.org/2000/svg" xmlns:svg="http://www.w3.org/2000/svg" id="svg5" width="64" height="64" version="1.1" viewBox="0 0 16.933 16.933"><path style="stroke-width:2.07079;stroke-dasharray:none;stroke:#fff;fill:none;stroke-linecap:round;stroke-linejoin:round" id="path289" d="m 58.321651,12.698536 -0.558962,3.485814 4.876563,-1.469574" transform="matrix(0.74514681,0,0,0.74514681,-39.120302,2.2986328)"/><path style="stroke-width:2.07079;stroke-dasharray:none;stroke:#fff;fill:none;stroke-linecap:round;stroke-linejoin:round" id="path953" d="m 55.996236,7.7807585 1.228349,1.9317129 1.167703,-1.9718383 z" transform="matrix(0.74514681,0,0,0.74514681,-39.120302,2.2986328)"/><path style="stroke-width:2.07079;stroke-dasharray:none;stroke:#fff;fill:none;stroke-linecap:round;stroke-linejoin:round" id="path2562" d="m 63.824761,5.993924 0.29361,2.1554114 3.593444,1.1319403" transform="matrix(0.74514681,0,0,0.74514681,-39.120302,2.2986328)"/><path id="path11412" style="stroke-width:2.07079;stroke-dasharray:none;stroke:#fff;fill:none;stroke-linecap:round;stroke-linejoin:round" d="m 57.198151,7.6362197 c 0,-4.012519 3.25279,-7.26530838 7.265309,-7.26530838 4.012519,0 7.265308,3.25278938 7.265308,7.26530838 0,4.0125193 -3.252789,7.2653093 -7.265308,7.2653093 -0.578673,0 -1.141544,-0.06765 -1.681136,-0.195481" transform="matrix(0.74514681,0,0,0.74514681,-39.120302,2.2986328)"/></svg>