<svg xmlns="http://www.w3.org/2000/svg" xmlns:svg="http://www.w3.org/2000/svg" xmlns:xlink="http://www.w3.org/1999/xlink" id="svg13076" width="100" height="100" x="0" y="0" enable-background="new 0 0 100 100" version="1.1" viewBox="0 0 100 100" xml:space="preserve"><g><ellipse id="path23638" cx="18.793" cy="33.473" fill="#FFF" rx="13.682" ry="14.261"/><path id="path23636" fill="#FFF" d="M6.903,80.789c0-11.847,0-23.693,4.756-35.539h14.268 c4.756,11.846,4.756,23.692,4.756,35.539H6.903"/><ellipse id="ellipse23642" cx="49.999" cy="33.473" fill="#FFF" rx="13.683" ry="14.261"/><path id="path23640" fill="#FFF" d="M38.108,80.789c0-11.847,0-23.693,4.756-35.539h14.268 c4.756,11.846,4.756,23.692,4.756,35.539H38.108"/><path id="path23644" fill="#FFF" d="M69.316,80.789c0-11.847,0-23.693,4.756-35.539H88.34 c4.757,11.846,4.757,23.692,4.757,35.539H69.316"/><ellipse id="ellipse23646" cx="81.206" cy="33.473" fill="#FFF" rx="13.683" ry="14.261"/></g></svg>