<svg xmlns="http://www.w3.org/2000/svg" xmlns:svg="http://www.w3.org/2000/svg" id="svg5" width="64" height="64" version="1.1" viewBox="0 0 16.933 16.933"><rect style="stroke-width:3.57045;stroke-dasharray:none;fill:#fff;fill-opacity:1;stroke:#fff;stroke-linecap:round;stroke-linejoin:round;stroke-dashoffset:0;stroke-opacity:1" id="rect26013" width="58.831" height="24.066" x="-167.86" y="-31.619" ry="12.033" transform="matrix(0.15519359,0,0,0.15519359,31.232208,8.9372117)"/><path style="stroke-width:8.16565;stroke-dasharray:none;fill:#fff;fill-opacity:1;stroke:#fff;stroke-linecap:round;stroke-linejoin:round;stroke-dashoffset:0;stroke-opacity:1" id="path26015" d="m -121.14141,2.6290179 c -0.22886,0.3963922 -16.87179,0.4522399 -17.32951,0.4522399 -0.45771,0 -17.10064,-0.055848 -17.3295,-0.45224 -0.22886,-0.3963922 8.04424,-14.8375168 8.2731,-15.2339088 0.22886,-0.396392 8.59869,-14.781669 9.0564,-14.781669 0.45772,0 8.82755,14.385276 9.05641,14.781668 0.22885,0.396393 8.50195,14.8375177 8.2731,15.2339099 z" transform="matrix(0,-0.07693147,-0.06541836,0,2.2708052,-4.7551753)"/><path id="path28608" style="stroke-width:3.3313;stroke-dasharray:none;fill:#fff;color:#000;fill-opacity:.45;stroke-linecap:round;stroke-linejoin:round;-inkscape-stroke:none" d="m -155.82823,2.6553184 c -7.56011,0 -13.69881,6.1387113 -13.69881,13.6988156 0,7.560104 6.1387,13.698816 13.69881,13.698816 h 34.76649 c 7.56011,0 13.69882,-6.138712 13.69882,-13.698816 0,-7.5601043 -6.13871,-13.6988156 -13.69882,-13.6988156 z" transform="matrix(0.15519359,0,0,0.15519359,31.232208,8.9372117)"/></svg>