<svg xmlns="http://www.w3.org/2000/svg" xmlns:svg="http://www.w3.org/2000/svg" id="svg4" width="23" height="22" fill="none" version="1.1" viewBox="0 0 23 22" xml:space="preserve"><path id="path13814" fill="#fff" d="m 13.240377,8.240346 c 0,1.789594 -1.450792,3.240341 -3.240377,3.240341 -1.789595,0 -3.24035,-1.450747 -3.24035,-3.240341 C 6.75965,6.450752 8.210405,5 10,5 c 1.789585,0 3.240377,1.450752 3.240377,3.240346 z" style="stroke-width:.891095"/><path id="path13816" fill="#fff" d="m 13.888379,16.284052 c 0,1.677308 -1.740841,1.677308 -3.888379,1.677308 -2.147512,0 -3.888416,0 -3.888416,-1.677308 0,-3.010741 1.740904,-5.451432 3.888416,-5.451432 2.147538,0 3.888379,2.440691 3.888379,5.451432 z" style="stroke-width:.891095"/><rect style="fill:none;fill-rule:evenodd;stroke:#fff;stroke-width:1.32552;stroke-linecap:round;stroke-miterlimit:3.2;stroke-dasharray:1.32552,2.65105;stroke-dashoffset:0" id="rect14304" width="11.652" height="16.231" x="4.174" y="3.161" ry=".062"/><path style="fill:none;stroke:#ff4596;stroke-width:2.12032;stroke-linecap:round;stroke-linejoin:round;stroke-dasharray:none;stroke-dashoffset:.236785;stroke-opacity:1" id="path2789" d="m 8.6762308,13.042111 a 4.7729707,4.7729707 0 0 1 4.6703702,-2.823223 4.7729707,4.7729707 0 0 1 4.265983,3.403578 4.7729707,4.7729707 0 0 1 -1.715517,5.180729 4.7729707,4.7729707 0 0 1 -5.454243,0.18488"/><path style="fill:none;stroke:#ff4596;stroke-width:2.12032;stroke-linecap:round;stroke-linejoin:round;stroke-dasharray:none;stroke-dashoffset:.236785;stroke-opacity:1" id="path2845" d="M 8.3526989,8.9714173 V 13.214058 L 12.28598,12.993087"/></svg>