<svg xmlns="http://www.w3.org/2000/svg" xmlns:svg="http://www.w3.org/2000/svg" id="svg4" width="23" height="22" fill="none" version="1.1" viewBox="0 0 23 22" xml:space="preserve"><g id="layer2" style="display:inline"><path style="display:none;fill:none;fill-opacity:.980952;stroke:#fff;stroke-width:1.4;stroke-linecap:round;stroke-linejoin:round;stroke-dasharray:none" id="path11459" d="M 4.3862586,18.660184 H 13.902208"/><path style="display:none;fill:none;fill-opacity:.980952;stroke:#fff;stroke-width:1.4;stroke-linecap:round;stroke-linejoin:round;stroke-dasharray:none" id="path11461" d="m 5.0553488,16.987459 -1.3381805,1.635554 1.3010089,1.970099"/><path style="display:none;fill:none;fill-opacity:.980952;stroke:#fff;stroke-width:1.4;stroke-linecap:round;stroke-linejoin:round;stroke-dasharray:none" id="path11463" d="m 13.567664,16.875944 0.854949,1.821412 -0.817777,1.9701"/></g><rect style="fill:none;stroke:#fff;stroke-width:2.5;stroke-linecap:round;stroke-linejoin:round;stroke-dashoffset:.236785" id="rect3829" width="15" height="12" x="3" y="4" ry=".053"/><rect style="fill:none;stroke:#fff;stroke-width:2.5;stroke-linecap:round;stroke-linejoin:round;stroke-dashoffset:.236785" id="rect3883" width="15" height="2" x="3" y="16" ry=".053"/><path style="fill:none;stroke:#fff;stroke-width:2.5;stroke-linecap:round;stroke-linejoin:round;stroke-dashoffset:.236785" id="path3986" d="m 7,12.5 h 7 l -2,-3 -2,2 z"/><path style="fill:none;stroke:#ff4596;stroke-width:2.12032;stroke-linecap:round;stroke-linejoin:round;stroke-dasharray:none;stroke-dashoffset:.236785;stroke-opacity:1" id="path2789" d="m 8.6762308,13.042111 a 4.7729707,4.7729707 0 0 1 4.6703702,-2.823223 4.7729707,4.7729707 0 0 1 4.265983,3.403578 4.7729707,4.7729707 0 0 1 -1.715517,5.180729 4.7729707,4.7729707 0 0 1 -5.454243,0.18488"/><path style="fill:none;stroke:#ff4596;stroke-width:2.12032;stroke-linecap:round;stroke-linejoin:round;stroke-dasharray:none;stroke-dashoffset:.236785;stroke-opacity:1" id="path2845" d="M 8.3526989,8.9714173 V 13.214058 L 12.28598,12.993087"/></svg>