<svg xmlns="http://www.w3.org/2000/svg" xmlns:svg="http://www.w3.org/2000/svg" id="svg4" width="23" height="22" fill="none" version="1.1" viewBox="0 0 23 22" xml:space="preserve"><path id="rect9566" style="fill:#fff;stroke:none;stroke-width:2;stroke-linecap:round;stroke-linejoin:round;stroke-dashoffset:.236785;fill-rule:evenodd;fill-opacity:1" d="m 3.460939,4.1191406 c -0.02912,0 -0.05273,0.023611 -0.05273,0.052734 V 15.066407 c 0,0.02912 0.02361,0.05273 0.05273,0.05273 h 14.894532 c 0.02912,0 0.05273,-0.02361 0.05273,-0.05273 V 4.171875 c 0,-0.029123 -0.02361,-0.052734 -0.05273,-0.052734 z"/><path style="display:inline;fill:#fff;fill-opacity:1;stroke:#fff;stroke-width:0;stroke-linecap:round;stroke-linejoin:miter;stroke-miterlimit:3.2;stroke-dasharray:none;stroke-dashoffset:.236785" id="path9626" d="M 19.297391,15.49935 10,20 13,15 Z"/><rect style="display:inline;fill:none;fill-opacity:1;fill-rule:evenodd;stroke:#fff;stroke-width:1.2;stroke-linecap:round;stroke-miterlimit:3.2;stroke-dasharray:none;stroke-dashoffset:.236785;stroke-opacity:1" id="rect999" width="16" height="11" x="3" y="4" ry=".053"/><path style="display:inline;fill:none;stroke:#ff4596;stroke-width:2.12032;stroke-linecap:round;stroke-linejoin:round;stroke-dasharray:none;stroke-dashoffset:.236785;stroke-opacity:1" id="path2789" d="m 8.6762308,13.042111 a 4.7729707,4.7729707 0 0 1 4.6703702,-2.823223 4.7729707,4.7729707 0 0 1 4.265983,3.403578 4.7729707,4.7729707 0 0 1 -1.715517,5.180729 4.7729707,4.7729707 0 0 1 -5.454243,0.18488"/><path style="display:inline;fill:none;stroke:#ff4596;stroke-width:2.12032;stroke-linecap:round;stroke-linejoin:round;stroke-dasharray:none;stroke-dashoffset:.236785;stroke-opacity:1" id="path2845" d="M 8.3526989,8.9714173 V 13.214058 L 12.28598,12.993087"/></svg>