<svg xmlns="http://www.w3.org/2000/svg" xmlns:svg="http://www.w3.org/2000/svg" id="svg4" width="23" height="22" fill="none" version="1.1" viewBox="0 0 23 22" xml:space="preserve"><path id="rect9566" style="fill:#fff;stroke:none;stroke-width:2;stroke-linecap:round;stroke-linejoin:round;stroke-dashoffset:.236785;fill-rule:evenodd;fill-opacity:1" d="m 3.460939,4.1191406 c -0.02912,0 -0.05273,0.023611 -0.05273,0.052734 V 15.066407 c 0,0.02912 0.02361,0.05273 0.05273,0.05273 h 14.894532 c 0.02912,0 0.05273,-0.02361 0.05273,-0.05273 V 4.171875 c 0,-0.029123 -0.02361,-0.052734 -0.05273,-0.052734 z m 7.6875,1.6035156 c 0.784,0 1.364235,0.1716254 1.740235,0.515625 0.375999,0.3439997 0.564453,0.892532 0.564453,1.6445313 v 4.3808595 h -0.769531 l -0.203125,-0.912109 h -0.04883 c -0.28,0.352 -0.57472,0.611297 -0.886719,0.779297 -0.312,0.168 -0.737438,0.251953 -1.273438,0.251953 -0.583999,0 -1.067172,-0.151079 -1.451172,-0.455078 C 8.436313,11.615735 8.24414,11.130609 8.24414,10.47461 8.24414,9.83461 8.496,9.3439996 9,9 9.503999,8.6480003 10.280126,8.4558281 11.328125,8.4238281 l 1.091799,-0.037109 V 8.0039062 c 0,-0.5359994 -0.115657,-0.9091877 -0.347657,-1.1171875 -0.231999,-0.2079998 -0.560375,-0.3125 -0.984374,-0.3125 -0.336,0 -0.654985,0.05225 -0.958985,0.15625 -0.304,0.096 -0.589516,0.2079376 -0.853516,0.3359375 L 8.953127,6.2753906 c 0.28,-0.1519998 0.610141,-0.2807657 0.99414,-0.3847656 0.384,-0.1119999 0.785173,-0.1679688 1.201172,-0.1679688 z m 1.259766,3.3964844 -0.947266,0.035156 c -0.799999,0.032 -1.355969,0.1607659 -1.667968,0.3847657 -0.304,0.2239998 -0.457032,0.5392665 -0.457032,0.9472665 0,0.359999 0.108219,0.624968 0.324219,0.792968 0.224,0.168 0.507563,0.251953 0.851563,0.251953 0.535999,0 0.98375,-0.147359 1.34375,-0.443359 0.367999,-0.304 0.552734,-0.768579 0.552734,-1.3925785 z"/><path style="display:inline;fill:#fff;fill-opacity:1;stroke:#fff;stroke-width:0;stroke-linecap:round;stroke-linejoin:miter;stroke-miterlimit:3.2;stroke-dasharray:none;stroke-dashoffset:.236785" id="path9626" d="M 19.297391,15.49935 10,20 13,15 Z"/><rect style="display:inline;fill:none;fill-opacity:1;fill-rule:evenodd;stroke:#fff;stroke-width:1.2;stroke-linecap:round;stroke-miterlimit:3.2;stroke-dasharray:none;stroke-dashoffset:.236785;stroke-opacity:1" id="rect999" width="16" height="11" x="3" y="4" ry=".053"/><path style="display:inline;fill:none;stroke:#ff4596;stroke-width:2.12032;stroke-linecap:round;stroke-linejoin:round;stroke-dasharray:none;stroke-dashoffset:.236785;stroke-opacity:1" id="path2789" d="m 8.6762308,13.042111 a 4.7729707,4.7729707 0 0 1 4.6703702,-2.823223 4.7729707,4.7729707 0 0 1 4.265983,3.403578 4.7729707,4.7729707 0 0 1 -1.715517,5.180729 4.7729707,4.7729707 0 0 1 -5.454243,0.18488"/><path style="display:inline;fill:none;stroke:#ff4596;stroke-width:2.12032;stroke-linecap:round;stroke-linejoin:round;stroke-dasharray:none;stroke-dashoffset:.236785;stroke-opacity:1" id="path2845" d="M 8.3526989,8.9714173 V 13.214058 L 12.28598,12.993087"/></svg>